<?xml version="1.0" encoding="UTF-8"?>
<svg width="803px" height="427px" viewBox="0 0 803 427" version="1.1" xmlns="http://www.w3.org/2000/svg" xmlns:xlink="http://www.w3.org/1999/xlink">
    <!-- Generator: Sketch 60.1 (88133) - https://sketch.com -->
    <title>Fill 647</title>
    <desc>Created with Sketch.</desc>
    <g id="Page-1" stroke="none" stroke-width="1" fill="none" fill-rule="evenodd">
        <path d="M174.354035,67.4012811 C173.228371,67.5949303 172.120199,67.8716611 170.997658,68.0896726 C169.87137,68.2826971 168.760698,68.5606773 167.638158,68.7780641 C166.514368,68.9717132 165.407445,69.24657 164.287403,69.4639568 C163.157991,69.6569813 162.044197,69.9362109 160.918533,70.1535976 C159.795368,70.3466221 158.68782,70.625227 157.567153,70.8413644 C156.440865,71.0350136 155.330818,71.3123691 154.208902,71.5285065 C153.085737,71.721531 151.97694,71.9988865 150.857523,72.2156486 C149.728111,72.4099225 148.614941,72.687278 147.489902,72.9059141 C116.154972,78.291859 86.0512762,92.803051 61.4778249,116.578168 C-3.5426853,179.486653 -5.25429383,283.193264 57.6541913,348.214399 C105.466789,397.632411 176.814004,410.379522 236.865227,386.079053 C237.93592,385.67239 238.981,385.190766 240.044821,384.75974 C241.116138,384.352452 242.163093,383.870828 243.227539,383.439803 C244.29948,383.03189 245.347684,382.550891 246.412755,382.119241 C247.480948,381.711953 248.52478,381.232827 249.586102,380.802426 C250.659918,380.394514 251.707497,379.91164 252.773192,379.47999 C253.84326,379.074576 254.887716,378.592327 255.950287,378.161927 C257.021604,377.754639 258.068559,377.273015 259.133004,376.841364 C260.204321,376.434701 261.249402,375.953077 262.313848,375.522676 C263.385789,375.116013 264.43087,374.634389 265.494691,374.203363 C266.569756,373.794826 267.61796,373.310703 268.685529,372.879053 C269.753723,372.47239 270.795055,371.99264 271.856378,371.562864 C272.925196,371.15745 273.968403,370.6777 275.03035,370.247299 C276.105415,369.838762 277.156117,369.354639 278.224311,368.922364 C279.291255,368.516325 280.332588,368.037825 281.393286,367.607424 C282.468351,367.198262 283.519053,366.715388 284.587247,366.283114 C285.656065,365.87645 286.699272,365.3967 287.761219,364.966299 C288.830662,364.559636 289.874493,364.079261 290.935815,363.648861 C292.012755,363.239699 293.064082,362.755576 294.133525,362.322676 C295.201719,361.917262 296.243676,361.436888 297.304374,361.007111 C298.373817,360.600448 299.417023,360.120698 300.479595,359.689673 C301.555285,359.281135 302.605363,358.798887 303.673556,358.365362 C304.742999,357.959324 305.786831,357.478324 306.848777,357.047924 C307.920095,356.640636 308.964551,356.160261 310.028371,355.728611 C311.100938,355.321323 312.147268,354.840323 313.212963,354.407424 C314.28303,354.000136 315.328111,353.519761 316.391307,353.08936 C317.462624,352.682072 318.50833,352.201073 319.572151,351.770047 C320.643468,351.362135 321.687924,350.88176 322.751745,350.45011 C323.823062,350.043447 324.870016,349.561823 325.934462,349.130797 C327.005154,348.723509 328.05086,348.24251 329.115305,347.811484 C330.186622,347.404196 331.232328,346.923197 332.296149,346.491547 C333.367466,346.084883 334.413796,345.603884 335.476992,345.172234 C336.549558,344.764321 337.596513,344.283946 338.662833,343.851047 C339.7329,343.444384 340.776732,342.964009 341.839303,342.532359 C342.91062,342.125695 343.95695,341.644696 345.020771,341.212421 C346.092713,340.805758 347.137794,340.326008 348.201615,339.893733 C349.272932,339.486445 350.318637,339.006695 351.382458,338.57442 C352.455649,338.166508 353.501979,337.686133 354.568299,337.252609 C355.638366,336.84657 356.682198,336.365571 357.744769,335.934545 C358.816086,335.527882 359.861167,335.046882 360.924988,334.615232 C361.996929,334.207944 363.042635,333.728194 364.10708,333.295295 C365.178397,332.888631 366.223478,332.409506 367.287299,331.976606 C368.361115,331.568694 369.409319,331.08707 370.475014,330.65417 C371.542583,330.248756 372.583291,329.769631 373.643364,329.33923 C374.71593,328.932567 375.764134,328.450943 376.829204,328.018668 C377.900521,327.612005 378.948101,327.131005 380.011922,326.698106 C381.085113,326.290193 382.131443,325.809818 383.196513,325.377543 C384.268455,324.969631 385.316034,324.488631 386.38048,324.055732 C387.449923,323.649693 388.493129,323.169319 389.554452,322.738293 C390.626393,322.332255 391.672099,321.85188 392.73592,321.419605 C393.807237,321.012317 394.853567,320.531942 395.917388,320.098418 C396.98808,319.691755 398.033785,319.212629 399.097606,318.780355 C400.170797,318.373067 401.217127,317.891443 402.282198,317.459168 C403.351016,317.052504 404.394847,316.574004 405.455545,316.142353 C406.528111,315.73569 407.576315,315.254691 408.640761,314.821791 C409.713327,314.415128 410.761531,313.932879 411.825977,313.500604 C412.896669,313.093317 413.941125,312.614191 415.003072,312.182541 C416.074389,311.775878 417.11947,311.296128 418.183915,310.862603 C419.255857,310.45594 420.302187,309.97619 421.364759,309.543291 C422.4367,309.136627 423.48303,308.656877 424.547476,308.223978 C425.618793,307.81669 426.665748,307.33694 427.730193,306.902791 C428.799636,306.497377 429.845342,306.017002 430.908538,305.584103 C431.979855,305.178064 433.026185,304.698314 434.089381,304.26479 C435.161323,303.857502 436.207028,303.379001 437.270225,302.944852 C438.341542,302.538814 439.388496,302.058439 440.451693,301.625539 C441.524259,301.218876 442.572463,300.737877 443.636909,300.304352 C444.705727,299.898939 445.748934,299.420438 446.809631,298.987538 C447.882198,298.580875 448.929152,298.101125 449.994223,297.666976 C451.067414,297.260313 452.114368,296.779313 453.178814,296.345789 C454.248882,295.940375 455.293962,295.460625 456.356534,295.02835 C457.427851,294.621062 458.473556,294.141312 459.538002,293.707788 C460.611818,293.301125 461.660022,292.820125 462.725092,292.385977 C463.794535,291.980563 464.838366,291.501437 465.899064,291.068538 C466.970381,290.662499 468.016086,290.182749 469.079282,289.749225 C470.151849,289.342562 471.200053,288.861562 472.264498,288.428038 C473.335191,288.021375 474.381521,287.542874 475.444092,287.10935 C476.514785,286.702687 477.561115,286.223561 478.623686,285.790037 C479.695003,285.383998 480.740709,284.904248 481.80328,284.470724 C482.875222,284.064061 483.921552,283.58556 484.985998,283.150787 C486.057315,282.744748 487.10302,282.265623 488.166841,281.831474 C489.238783,281.425435 490.285113,280.945685 491.348934,280.511536 C492.420251,280.105498 493.465956,279.626997 494.528528,279.192223 C495.601719,278.786185 496.648673,278.30581 497.714368,277.871036 C498.785061,277.464998 499.830141,276.986497 500.892088,276.552348 C501.963405,276.146934 503.007861,275.667809 504.071682,275.234285 C505.142999,274.828246 506.189329,274.347871 507.251901,273.914347 C508.324467,273.507684 509.370173,273.029183 510.433994,272.59441 C511.507809,272.188371 512.554139,271.707996 513.618585,271.273223 C514.688028,270.868434 515.731859,270.389933 516.793181,269.956409 C517.866997,269.549745 518.915201,269.069371 519.980271,268.634597 C521.050339,268.228559 522.096669,267.750058 523.158616,267.315909 C524.230558,266.910495 525.275638,266.430745 526.33821,265.996596 C527.409527,265.590558 528.455857,265.112057 529.519053,264.677908 C530.590995,264.271245 531.637325,263.792119 532.701771,263.357346 C533.773088,262.951932 534.819418,262.472182 535.883863,262.037408 C536.954556,261.631994 538.000886,261.152869 539.063457,260.71872 C540.137898,260.310807 541.187976,259.830433 542.254295,259.395034 C543.322489,258.989621 544.365696,258.512369 545.425144,258.07822 C546.494587,257.673431 547.540917,257.195555 548.60099,256.761406 C549.67668,256.354118 550.726133,255.874368 551.793077,255.43772 C552.860022,255.032307 553.902604,254.556305 554.961427,254.123405 C556.035243,253.716117 557.084072,253.237616 558.149767,252.801593 C559.224832,252.39493 560.273036,251.913306 561.339355,251.477283 C562.408174,251.072494 563.453254,250.595243 564.512703,250.160469 C565.58402,249.754431 566.629725,249.276554 567.692296,248.841156 C568.763614,248.435742 569.810568,247.956617 570.873764,247.521843 C571.943207,247.116429 572.987663,246.639803 574.048361,246.205029 C575.124051,245.797117 576.175378,245.317991 577.242947,244.880719 C578.311141,244.476554 579.354347,243.998054 580.415045,243.564529 C581.488861,243.156617 582.537065,242.678116 583.602135,242.242093 C584.670953,241.837304 585.714785,241.360053 586.774233,240.925279 C587.849298,240.519241 588.898751,240.03949 589.964446,239.602843 C591.033889,239.198054 592.079595,238.720178 593.140292,238.285404 C594.212234,237.87999 595.258564,237.401489 596.32176,236.964842 C597.393077,236.559428 598.440032,236.081552 599.501979,235.646154 C600.574545,235.241364 601.622125,234.762239 602.685321,234.326216 C603.757263,233.919553 604.804842,233.442301 605.868663,233.005029 C606.938731,232.60024 607.983811,232.121739 609.045134,231.686966 C610.117075,231.281552 611.164655,230.802426 612.227226,230.367028 C613.299168,229.961614 614.346123,229.483738 615.408694,229.047715 C616.480636,228.642301 617.525717,228.16505 618.588288,227.728402 C619.662729,227.322989 620.712182,226.843238 621.776628,226.405966 C622.844197,226.002426 623.885529,225.5258 624.944353,225.091651 C626.020042,224.684988 627.071995,224.205237 628.138939,223.766716 C629.207757,223.362551 630.250339,222.885925 631.311037,222.450526 C632.383603,222.044488 633.430558,221.566612 634.493754,221.130589 C635.568194,220.72455 636.616399,220.246049 637.682093,219.808153 C638.749662,219.404613 639.79162,218.928611 640.849819,218.493212 C641.924259,218.087799 642.973088,217.609922 644.037533,217.17265 C645.111349,216.765987 646.159553,216.287486 647.223999,215.850214 C648.292817,215.445425 649.337898,214.968798 650.398595,214.532775 C651.473036,214.127361 652.523114,213.648236 653.587559,213.209714 C654.656378,212.80555 655.699584,212.330797 656.758408,211.894774 C657.832224,211.488111 658.882302,211.010235 659.945498,210.571713 C661.016815,210.167549 662.06252,209.690297 663.124467,209.253025 C664.19516,208.848236 665.242114,208.370984 666.304061,207.934962 C667.376003,207.530172 668.422958,207.052296 669.485529,206.614399 C670.557471,206.20961 671.603801,205.732359 672.665748,205.295086 C673.738939,204.889048 674.787143,204.412421 675.850964,203.9739 C676.922281,203.56911 677.967362,203.093108 679.029308,202.655836 C680.100625,202.250422 681.149454,201.773171 682.211401,201.335899 C683.282718,200.931109 684.329673,200.454483 685.390995,200.016586 C686.462312,199.611796 687.509891,199.13517 688.571838,198.697273 C689.645029,198.291234 690.693233,197.814608 691.757679,197.375461 C692.826497,196.972546 693.870329,196.495919 694.930402,196.059272 C696.002343,195.654483 697.051172,195.177856 698.113744,194.739334 C699.185685,194.333296 700.23264,193.857294 701.295212,193.419397 C702.368403,193.013358 703.417856,192.536731 704.480428,192.09821 C705.55112,191.694045 706.59745,191.217419 707.658772,190.779522 C708.729465,190.374732 709.778293,189.898106 710.839616,189.460209 C711.910933,189.05542 712.957887,188.578168 714.01921,188.140896 C715.091776,187.736107 716.138731,187.25948 717.201302,186.820958 C718.274493,186.416169 719.322073,185.939542 720.385894,185.500396 C721.459085,185.095607 722.507289,184.617731 723.570485,184.17796 C724.638679,183.775045 725.681885,183.300292 726.738835,182.864269 C727.815149,182.458231 728.866477,181.980979 729.932172,181.539959 C731.001615,181.135794 732.046695,180.659792 733.106768,180.221895 C734.17871,179.816482 735.225665,179.340479 736.287611,178.902583 C737.359553,178.498418 738.406508,178.023041 739.46783,177.584519 C753.275638,172.373483 766.278866,164.355784 777.56049,153.440844 C821.792453,110.646882 822.957471,40.0967522 780.16226,-4.13521028 C752.747788,-32.4698277 713.959241,-43.0355747 677.97923,-35.7880994 C676.854191,-35.5975736 675.742895,-35.3258402 674.621604,-35.1003326 C673.496565,-34.9091822 672.385269,-34.6380734 671.265227,-34.4125658 C670.138939,-34.2214154 669.028892,-33.9503066 667.907601,-33.724799 C666.781937,-33.5336486 665.671266,-33.2625398 664.550599,-33.0364076 C663.424936,-32.8458818 662.314264,-32.574773 661.192973,-32.3492655 C660.064811,-32.1574903 658.95289,-31.8851322 657.8291,-31.659 C656.70656,-31.4690989 655.599636,-31.1979901 654.482093,-30.9731072 C653.355805,-30.7825814 652.24326,-30.5102233 651.120719,-30.2853404 C649.995055,-30.0935653 648.884384,-29.8230812 647.763093,-29.596949 C646.636805,-29.4057985 645.526133,-29.1334404 644.404842,-28.9085575 C643.277304,-28.7167824 642.164134,-28.4450489 641.041594,-28.2195414 C639.919053,-28.0296403 638.812755,-27.7579068 637.694587,-27.5342733 C636.567049,-27.3424981 635.454504,-27.0707647 634.331963,-26.8452571 C633.204426,-26.653482 632.092505,-26.3811239 630.969964,-26.156241 C629.846175,-25.9644659 628.736752,-25.6933571 627.617336,-25.4690989 C626.491672,-25.2766991 625.380376,-25.006215 624.259709,-24.7807074 C623.135295,-24.5901816 622.027122,-24.3184482 620.907705,-24.0948147 C619.780792,-23.9030395 618.667622,-23.6313061 617.544457,-23.4057985 C616.416919,-23.2146481 615.305623,-22.9410406 614.182458,-22.7167824 C613.057419,-22.5256319 611.949246,-22.2526491 610.829829,-22.0290156 C609.702916,-21.8378651 608.592244,-21.565507 607.470329,-21.3412488 C606.346539,-21.1500984 605.238366,-20.8777402 604.119574,-20.6541067 C602.990162,-20.4623316 601.876367,-20.1893487 600.751328,-19.9644659 C599.627539,-19.7739401 598.519366,-19.5009573 597.399949,-19.2779484 C596.27366,-19.086798 595.162989,-18.8138152 594.041698,-18.589557 C592.915409,-18.3984065 591.805987,-18.1254237 590.685321,-17.9024149 C589.561531,-17.7106397 588.452109,-17.4389063 587.332692,-17.2152727 C586.203905,-17.022873 585.088861,-16.7498901 583.965071,-16.5256319 C582.840657,-16.3338568 581.731859,-16.0614987 580.611818,-15.8378651 C579.485529,-15.6467147 578.376107,-15.3743566 577.255441,-15.1500984 C576.131651,-14.9595726 575.022229,-14.6865898 573.901562,-14.4635809 C572.772775,-14.2718058 571.659605,-13.9981983 570.535191,-13.7733154 C569.411401,-13.5827897 568.301979,-13.3098068 567.181937,-13.086798 C566.056274,-12.8943982 564.946851,-12.6220401 563.82556,-12.3984065 C562.699897,-12.2066314 561.587976,-11.9336486 560.467934,-11.7106397 C559.34227,-11.5188646 558.230974,-11.2458818 557.110308,-11.022873 C555.983395,-10.8310978 554.873348,-10.5574903 553.752057,-10.3344815 C552.626393,-10.143331 551.516971,-9.86909888 550.39568,-9.64733938 C549.268767,-9.45493959 548.157471,-9.18133209 547.03618,-8.95769857 C545.913015,-8.76654812 544.804842,-8.49543933 543.686674,-8.27305515 C542.556638,-8.08065536 541.441594,-7.80642319 540.316555,-7.58216499 C539.19339,-7.39038987 538.083967,-7.11678238 536.964551,-6.89564755 C535.838262,-6.70387243 534.727591,-6.42964026 533.606924,-6.20725609 C532.481261,-6.0148563 531.371214,-5.74187347 530.249923,-5.51886463 C529.124884,-5.32771418 528.012338,-5.05348201 526.891672,-4.83109784 C525.765383,-4.63932272 524.656586,-4.36696457 523.53592,-4.14333105 C522.410256,-3.95218061 521.299584,-3.67669909 520.178918,-3.45556426 C519.053254,-3.26316447 517.941958,-2.99018165 516.820042,-2.76779747 C515.696253,-2.57602236 514.586831,-2.30303953 513.466789,-2.08065536 C512.338002,-1.88825557 511.224832,-1.6140234 510.099793,-1.39101455 C508.975378,-1.19923943 507.86783,-0.925631934 506.747164,-0.703872434 C505.620875,-0.511472642 504.510828,-0.237240471 503.389538,-0.0154809711 C502.262,0.176918821 501.150079,0.451150991 500.027539,0.673535166 C498.903749,0.865310283 497.793702,1.13891778 496.674285,1.36067728 C495.550495,1.55307707 494.442323,1.82543522 493.322906,2.04719472 C492.195992,2.23959451 491.083447,2.51320201 489.960282,2.73558618 C488.835243,2.9273613 487.723947,3.20221814 486.602656,3.42335297 C485.475118,3.61575276 484.362572,3.89060961 483.240032,4.11299378 C482.115618,4.30414422 481.006195,4.57837639 479.886779,4.8001359 C478.762364,4.99191101 477.654191,5.26551851 476.53415,5.48665333 C475.407237,5.67905313 474.295316,5.95390997 473.172775,6.1750448 C472.045238,6.36744459 470.932067,6.64292611 469.808902,6.86468561 C468.685737,7.05583605 467.577565,7.33131757 466.457523,7.55182772 C465.331235,7.74485219 464.220563,8.01783501 463.098647,8.23959451 C461.975482,8.4319943 460.866685,8.70497712 459.747893,8.92673662 C458.620979,9.11788707 457.509059,9.39336859 456.385269,9.61450341 C455.257731,9.80752788 454.144561,10.0823847 453.021396,10.3047689 C451.896982,10.496544 450.790058,10.7707762 449.670016,10.9912863 C448.546851,11.1836861 447.436805,11.4579183 446.317388,11.6784285 C445.18985,11.8708282 444.077304,12.1456851 442.954139,12.3661952 C441.826602,12.5592197 440.715305,12.8334519 439.59214,13.0558361 C438.467726,13.2476112 437.359553,13.5230927 436.238887,13.7436028 C435.115722,13.935378 434.007549,14.2089855 432.888132,14.4294956 C431.760594,14.6225201 430.648673,14.8967522 429.525508,15.1185117 C428.397346,15.3102869 427.285425,15.5863931 426.16226,15.8075279 C425.03847,15.9999277 423.930298,16.2747845 422.810256,16.4952947 C421.684592,16.6883191 420.574545,16.9625513 419.45263,17.1824368 C418.324467,17.3754612 417.211922,17.6509428 416.087507,17.8720776 C414.96809,18.063228 413.86429,18.3380849 412.749246,18.5573457 C411.616711,18.7497455 410.501042,19.025227 409.373504,19.2469865 C408.249714,19.4393863 407.141542,19.7148678 406.022125,19.935378 C404.896461,20.1271531 403.785789,20.4026346 402.663874,20.6218954 C401.540709,20.8149199 400.432536,21.089152 399.313119,21.3096622 C398.184957,21.502062 397.069912,21.7781682 395.944873,21.9986783 C394.821084,22.1910781 393.712286,22.465935 392.592869,22.6858204 C391.46783,22.8794696 390.356534,23.1543264 389.234618,23.3748366 C388.110828,23.5666117 387.003905,23.8414685 385.883863,24.0601047 C384.754452,24.2537538 383.640032,24.52986 382.513744,24.7509948 C381.389954,24.9427699 380.281156,25.2182515 379.161739,25.4375123 C378.0367,25.6305367 376.925404,25.9053936 375.804113,26.1259037 C374.67845,26.3170542 373.568403,26.593785 372.447736,26.8130458 C371.322697,27.0060703 370.212026,27.2828012 369.09011,27.502062 C367.964446,27.6944618 366.8544,27.9699433 365.733109,28.1892041 C364.60682,28.3816039 363.497398,28.6583347 362.374858,28.8775956 C361.249194,29.0712447 360.138522,29.3454769 359.017856,29.5653623 C357.892192,29.7577621 356.782146,30.0338683 355.659605,30.2531291 C354.534566,30.4461536 353.424519,30.7210104 352.301979,30.9408959 C351.17694,31.1339204 350.066893,31.4094019 348.944353,31.6286627 C347.819314,31.8210625 346.709267,32.096544 345.587976,32.3170542 C344.462312,32.5100786 343.351641,32.7855602 342.229725,33.004821 C341.104686,33.1965961 339.994014,33.4727023 338.872099,33.6925877 C337.74706,33.8856122 336.637013,34.1610937 335.514472,34.3809792 C334.388809,34.573379 333.279387,34.8494852 332.158096,35.0681213 C331.031807,35.2611458 329.922385,35.5366273 328.799845,35.7565128 C327.674806,35.9489126 326.565383,36.2250188 325.443468,36.4436549 C324.318429,36.637304 323.207133,36.9134102 322.084592,37.1320464 C320.958928,37.3256955 319.849506,37.601177 318.728215,37.8204378 C317.601927,38.0128376 316.490631,38.2889438 315.368715,38.5082046 C314.243676,38.7012291 313.133629,38.9767106 312.012338,39.1959714 C310.887299,39.3889959 309.776628,39.6651021 308.654712,39.8837382 C307.529048,40.0773873 306.419626,40.3528688 305.298335,40.5721296 C304.172047,40.7651541 303.062624,41.0412603 301.940084,41.2592718 C300.812546,41.4529209 299.70125,41.7296518 298.57746,41.9489126 C297.456169,42.1406877 296.348621,42.4161692 295.230454,42.6348053 C294.104165,42.8278298 292.99162,43.1045607 291.869079,43.3238215 C290.742166,43.5174706 289.632119,43.7923275 288.510204,44.0115883 C287.382666,44.2046127 286.270121,44.4819683 285.146331,44.7006044 C284.024415,44.8936289 282.918741,45.1684857 281.800573,45.3864972 C280.673036,45.5795216 279.56049,45.8568772 278.437325,46.0748886 C277.311037,46.2679131 276.201615,46.544644 275.080324,46.7639048 C273.95466,46.9563046 272.844613,47.2317861 271.722697,47.4510469 C270.59516,47.6440713 269.483239,47.9214269 268.360074,48.140063 C267.236284,48.3324628 266.128111,48.6091937 265.00807,48.8278298 C263.88428,49.0196049 262.775482,49.2963358 261.655441,49.5137226 C260.528528,49.7079964 259.416607,49.9841026 258.294066,50.2027387 C257.166529,50.3957632 256.053983,50.6737434 254.930193,50.8917548 C253.806404,51.085404 252.697606,51.3615102 251.57694,51.5795216 C250.451276,51.7725461 249.341229,52.0486523 248.219314,52.2666637 C247.095524,52.4590635 245.987351,52.7357944 244.867934,52.9538059 C243.739772,53.147455 242.629725,53.4241859 241.505311,53.6421973 C240.379647,53.8352218 239.268351,54.1125773 238.146435,54.3305888 C237.018273,54.5236133 235.90885,54.8015935 234.784436,55.0196049 C233.66252,55.2120047 232.555597,55.4887356 231.437429,55.7054977 C230.309267,55.8991468 229.198595,56.1758777 228.074181,56.3938891 C226.948517,56.5869136 225.83972,56.8642692 224.717804,57.0816559 C223.59214,57.2746804 222.481469,57.5520359 221.360178,57.7700474 C220.232015,57.9636965 219.121344,58.2410521 217.996929,58.4596882 C216.875014,58.6514633 215.76809,58.9288189 214.649923,59.145581 C213.52301,59.3392301 212.411089,59.6153363 211.287924,59.8339724 C210.161635,60.0269969 209.051589,60.3037278 207.930298,60.5211146 C206.802135,60.7147637 205.691464,60.9927439 204.567049,61.2107554 C203.442635,61.4031552 202.334462,61.68176 201.21442,61.8985222 C200.090631,62.0909219 198.983083,62.3670281 197.861792,62.5850396 C196.734254,62.7786887 195.623582,63.0554196 194.499793,63.2740557 C193.37163,63.4670802 192.260959,63.7438111 191.137169,63.9624472 C190.012755,64.1554717 188.904582,64.4322025 187.783915,64.650214 C186.659501,64.8432384 185.54883,65.120594 184.427539,65.3373561 C183.304374,65.5303806 182.195576,65.8077361 181.075534,66.0244982 C179.946123,66.218772 178.832952,66.4961276 177.707289,66.714139 C176.582874,66.9071635 175.474701,67.1832697 174.354035,67.4012811" id="Fill-647" fill="#9BE6C8" transform="translate(411.541016, 180.023427) rotate(-147.000000) translate(-411.541016, -180.023427) "></path>
    </g>
</svg>