<?xml version="1.0" encoding="UTF-8"?>
<svg width="893px" height="698px" viewBox="0 0 893 698" version="1.1" xmlns="http://www.w3.org/2000/svg" xmlns:xlink="http://www.w3.org/1999/xlink">
    <!-- Generator: Sketch 60.1 (88133) - https://sketch.com -->
    <title>Fill 647 Copy</title>
    <desc>Created with Sketch.</desc>
    <g id="Page-1" stroke="none" stroke-width="1" fill="none" fill-rule="evenodd">
        <path d="M168.484873,220.320413 C167.119248,220.555343 165.774844,220.891065 164.413009,221.155551 C163.046627,221.389722 161.699191,221.72696 160.337356,221.990688 C158.974005,222.225618 157.631116,222.559067 156.272313,222.822794 C154.902142,223.056966 153.550916,223.39572 152.185292,223.659447 C150.822699,223.893619 149.479053,224.231615 148.119491,224.493827 C146.753109,224.728757 145.406431,225.065237 144.045354,225.327449 C142.682761,225.561621 141.337599,225.898101 139.979553,226.161071 C138.609382,226.396758 137.258914,226.733238 135.894048,226.998482 C97.8793769,233.532561 61.3584044,251.137139 31.546572,279.980454 C-47.3345149,356.299291 -49.4109911,482.113287 26.9078454,560.995131 C84.9127682,620.947698 171.469239,636.412141 244.321724,606.931484 C245.620659,606.438131 246.888522,605.853838 248.17912,605.33093 C249.478812,604.836819 250.748948,604.252526 252.040304,603.729618 C253.340755,603.23475 254.612407,602.651214 255.904521,602.127548 C257.200424,601.633438 258.466771,601.052176 259.754338,600.530026 C261.057061,600.035158 262.327956,599.449349 263.620827,598.925683 C264.919004,598.433846 266.186109,597.848795 267.475192,597.326644 C268.774884,596.832534 270.04502,596.248241 271.336376,595.724575 C272.636069,595.231222 273.903932,594.646929 275.195288,594.124779 C276.495738,593.631426 277.763601,593.047133 279.054199,592.524225 C280.358438,592.028599 281.63009,591.441274 282.925235,590.917608 C284.221139,590.424256 285.484455,589.842236 286.772021,589.320843 C288.068682,588.829007 289.334272,588.246987 290.622596,587.724837 C291.926836,587.229211 293.201519,586.641886 294.497422,586.117462 C295.79181,585.624867 297.055126,585.044363 298.341935,584.522213 C299.646174,584.025829 300.920857,583.44002 302.21676,582.915596 C303.513421,582.422244 304.779011,581.840224 306.067335,581.318074 C307.364754,580.824721 308.631101,580.241944 309.918668,579.719793 C311.225181,579.22341 312.500622,578.636085 313.798041,578.110903 C315.093944,577.619066 316.358018,577.036289 317.644827,576.514896 C318.942246,576.021544 320.207835,575.439524 321.496918,574.916616 C322.801915,574.42099 324.07584,573.835939 325.371744,573.309999 C326.669162,572.817405 327.93551,572.233869 329.223834,571.711719 C330.523526,571.217609 331.790632,570.634831 333.08123,570.111165 C334.382438,569.617055 335.651816,569.033519 336.944688,568.508338 C338.242865,568.014227 339.510728,567.43145 340.800568,566.909299 C342.10026,566.415189 343.368881,565.831654 344.659479,565.308746 C345.959171,564.813877 347.226277,564.2311 348.516875,563.707434 C349.816567,563.214081 351.086704,562.629788 352.37806,562.10688 C353.676994,561.612769 354.945615,561.029234 356.236971,560.506326 C357.536663,560.012216 358.805284,559.42868 360.095882,558.905014 C361.395574,558.411662 362.664953,557.828126 363.954793,557.30446 C365.256001,556.809592 366.526138,556.226815 367.819767,555.701633 C369.117944,555.20828 370.384291,554.625503 371.673374,554.101837 C372.973066,553.608484 374.242444,553.024949 375.533043,552.500525 C376.833493,552.007172 378.101356,551.425153 379.391954,550.900729 C380.691646,550.406619 381.960267,549.824599 383.250865,549.300175 C384.552831,548.805307 385.82221,548.222529 387.115839,547.69659 C388.414016,547.203995 389.680363,546.62046 390.969445,546.097551 C392.269138,545.604199 393.537001,545.020664 394.827599,544.496998 C396.128049,544.002887 397.39667,543.420868 398.688026,542.895686 C399.987718,542.402333 401.255581,541.821071 402.546179,541.29589 C403.848903,540.801021 405.120555,540.216728 406.413427,539.691547 C407.708572,539.19971 408.97113,538.618448 410.257181,538.096298 C411.558389,537.602945 412.830041,537.018652 414.122155,536.494228 C415.421847,536.000875 416.692742,535.41734 417.98334,534.892158 C419.285306,534.39729 420.554684,533.814513 421.846798,533.290089 C423.147248,532.795221 424.418143,532.211685 425.709499,531.686504 C427.006917,531.193909 428.272507,530.611131 429.560074,530.088223 C430.860524,529.595628 432.129145,529.012851 433.419743,528.488427 C434.719435,527.994317 435.988814,527.411539 437.279412,526.8856 C438.578346,526.392247 439.846967,525.810985 441.137565,525.286561 C442.439531,524.792451 443.70891,524.208158 445.001023,523.683734 C446.297684,523.190381 447.564032,522.609877 448.850841,522.086211 C450.152049,521.592859 451.423701,521.009324 452.715057,520.484142 C454.016265,519.990789 455.287917,519.405738 456.579273,518.881314 C457.878207,518.387204 459.145312,517.805942 460.433637,517.282276 C461.733329,516.788924 463.001192,516.206904 464.292548,515.680964 C465.592998,515.187612 466.862377,514.605592 468.15146,514.08041 C469.45191,513.587058 470.721288,513.005038 472.012644,512.479857 C473.312337,511.985746 474.582473,511.403727 475.873829,510.877029 C477.171248,510.385192 478.439869,509.802415 479.729709,509.277233 C481.029401,508.784638 482.29878,508.202619 483.58862,507.676679 C484.88907,507.182569 486.157691,506.602065 487.447531,506.075367 C488.747224,505.582773 490.01736,504.999995 491.307201,504.474813 C492.608408,503.981461 493.880061,503.397926 495.171417,502.871986 C496.468078,502.380149 497.733667,501.799645 499.020476,501.274463 C500.321684,500.781111 501.59182,500.199091 502.883934,499.672394 C504.1859,499.179041 505.456037,498.595506 506.747393,498.069566 C508.045569,497.577729 509.313432,496.99571 510.602515,496.471286 C511.902207,495.977176 513.170828,495.395156 514.462184,494.869216 C515.764907,494.375864 517.036559,493.792329 518.328673,493.265631 C519.626092,492.773794 520.892439,492.192532 522.179248,491.667351 C523.478941,491.174756 524.747561,490.592736 526.037402,490.066797 C527.33861,489.573444 528.610262,488.989909 529.901618,488.463969 C531.200552,487.970617 532.469931,487.390113 533.759013,486.864173 C535.057948,486.370821 536.327327,485.789559 537.616409,485.263619 C538.916101,484.771025 540.184722,484.189005 541.473805,483.663065 C542.774255,483.169713 544.043633,482.589209 545.334989,482.061754 C546.634682,481.569159 547.903302,480.987897 549.193901,480.4612 C550.494351,479.968605 551.763729,479.386585 553.054327,478.859888 C554.35402,478.367293 555.622641,477.786789 556.911723,477.259334 C558.213689,476.766739 559.483825,476.183962 560.776697,475.656507 C562.075631,475.163912 563.343494,474.583408 564.631819,474.056711 C565.931511,473.564874 567.198616,472.983612 568.489215,472.457672 C569.788907,471.965078 571.058286,471.3823 572.347368,470.856361 C573.648576,470.363008 574.917197,469.782504 576.207795,469.255049 C577.510519,468.762454 578.779897,468.179677 580.071253,467.652221 C581.368672,467.161142 582.635019,466.580638 583.922586,466.054699 C585.22531,465.561346 586.496962,464.978569 587.789076,464.451114 C589.087252,463.958519 590.356631,463.378015 591.644956,462.851317 C592.945406,462.359481 594.213269,461.777461 595.502351,461.250764 C596.802043,460.758169 598.071422,460.177665 599.361262,459.650967 C600.661712,459.157615 601.931091,458.576353 603.222447,458.048898 C604.522139,457.557061 605.791518,456.975041 607.082874,456.447586 C608.381808,455.955749 609.651187,455.374487 610.94027,454.84779 C612.243751,454.352922 613.517677,453.770144 614.811306,453.241931 C616.107209,452.750094 617.372799,452.171106 618.658092,451.644409 C619.955511,451.15333 621.22489,450.573584 622.510941,450.046886 C623.815938,449.552776 625.089106,448.970756 626.383493,448.441027 C627.67788,447.94919 628.942712,447.371718 630.227248,446.846536 C631.529971,446.352426 632.802381,445.771922 634.095253,445.242951 C635.399492,444.749598 636.671144,444.165305 637.964774,443.636334 C639.261435,443.145255 640.529298,442.566267 641.814591,442.038812 C643.114283,441.546217 644.382904,440.966471 645.671987,440.438258 C646.971679,439.946421 648.241815,439.365159 649.531656,438.837704 C650.829074,438.345867 652.09618,437.767637 653.382988,437.240181 C654.687986,436.745313 655.963427,436.164051 657.258572,435.633565 C658.554475,435.143243 659.820065,434.56274 661.106874,434.0368 C662.409597,433.541932 663.681249,432.961428 664.973363,432.432457 C666.270024,431.941378 667.536372,431.36239 668.821665,430.834934 C670.125904,430.34234 671.399072,429.76032 672.691944,429.230591 C673.989362,428.739512 675.257983,428.159766 676.544792,427.632311 C677.845242,427.140474 679.114621,426.55997 680.404461,426.030241 C681.704153,425.538404 682.97429,424.958658 684.262615,424.430445 C685.563823,423.939366 686.834717,423.358104 688.124557,422.829133 C689.425007,422.335781 690.695902,421.756793 691.9865,421.226306 C693.284676,420.735227 694.552539,420.154723 695.840106,419.627268 C697.140556,419.135431 698.411451,418.554169 699.700533,418.025956 C701.000983,417.534119 702.27112,416.954373 703.560202,416.425402 C704.860652,415.933565 706.128515,415.354577 707.417598,414.824848 C708.721079,414.333011 709.994247,413.750992 711.285603,413.220505 C712.580748,412.730942 713.844064,412.152711 715.1286,411.626014 C716.433597,411.132661 717.709796,410.550642 719.004183,410.018639 C720.300844,409.528318 721.565676,408.950088 722.852485,408.421875 C724.153693,407.92928 725.423829,407.349534 726.71367,406.820563 C728.017151,406.327968 729.288803,405.747464 730.581675,405.21622 C731.87682,404.726656 733.140894,404.149184 734.424672,403.620971 C735.728153,403.129134 737.000563,402.549388 738.291919,402.018901 C739.594643,401.525548 740.866295,400.945045 742.157651,400.414558 C743.454312,399.923479 744.722175,399.345248 746.008984,398.816278 C747.312465,398.324441 748.586391,397.743179 749.877747,397.211177 C751.174408,396.720855 752.439997,396.144898 753.724533,395.615928 C755.027256,395.122575 756.301182,394.542829 757.591022,394.010827 C758.890715,393.520505 760.159335,392.941517 761.44766,392.411031 C762.746594,391.919951 764.016731,391.340963 765.305056,390.811992 C766.605506,390.320913 767.875642,389.741167 769.164725,389.209923 C770.465175,388.718844 771.734554,388.139855 773.022878,387.609369 C774.324844,387.116774 775.596496,386.538544 776.887094,386.006541 C778.186786,385.515462 779.45465,384.93799 780.742974,384.407503 C782.042666,383.915666 783.315076,383.336678 784.603401,382.806191 C785.903093,382.315112 787.17323,381.736882 788.460797,381.205637 C789.760489,380.714558 791.031383,380.136328 792.319708,379.605083 C793.621674,379.112489 794.893326,378.534258 796.184682,378.001498 C797.481343,377.512693 798.74769,376.934462 800.033741,376.404733 C801.334191,375.913654 802.606601,375.335424 803.895684,374.803422 C805.196134,374.310827 806.46627,373.733354 807.755353,373.20211 C809.057319,372.709515 810.330486,372.131285 811.619569,371.599283 C812.918503,371.108961 814.187882,370.530731 815.475449,369.999486 C816.774383,369.508407 818.046793,368.930177 819.33436,368.398933 C820.634052,367.907854 821.904189,367.328865 823.191756,366.798379 C824.492964,366.3073 825.7631,365.729069 827.052183,365.197067 C828.354148,364.705988 829.625043,364.127757 830.915641,363.594997 C832.217607,363.103918 833.489259,362.524172 834.779099,361.990654 C836.075002,361.501849 837.340592,360.925892 838.622854,360.396921 C839.928609,359.904326 841.20405,359.325338 842.496922,358.790304 C843.79434,358.299983 845.062203,357.72251 846.348255,357.191266 C847.648705,356.699429 848.918841,356.121956 850.207166,355.590712 C851.507616,355.100391 852.777752,354.523676 854.065319,353.991674 C870.816571,347.669789 886.591727,337.942938 900.278282,324.701234 C953.939277,272.784782 955.352645,187.195313 903.434678,133.534318 C870.176198,99.1595424 823.119003,86.34147 779.469048,95.1339068 C778.104182,95.3650474 776.755988,95.6947069 775.395669,95.9682865 C774.030803,96.2001849 772.682609,96.5290866 771.323805,96.8026661 C769.957423,97.0345646 768.610745,97.3634663 767.250426,97.6370458 C765.884802,97.8689442 764.537366,98.197846 763.177804,98.4721833 C761.81218,98.7033239 760.464744,99.0322256 759.104425,99.3058052 C757.735769,99.5384614 756.386818,99.8688788 755.023467,100.143216 C753.661632,100.373599 752.318743,100.702501 750.962971,100.975322 C749.596589,101.206463 748.246879,101.53688 746.885045,101.809702 C745.51942,102.042358 744.171984,102.370502 742.811665,102.64484 C741.445283,102.876738 740.097847,103.207155 738.737528,103.479977 C737.36963,103.712633 736.019163,104.042293 734.657328,104.315872 C733.295493,104.546255 731.953362,104.875915 730.596832,105.147221 C729.228934,105.379877 727.879225,105.709536 726.51739,105.983116 C725.149492,106.215772 723.80054,106.54619 722.438705,106.819011 C721.075355,107.051668 719.729434,107.380569 718.371389,107.652633 C717.005765,107.886047 715.657571,108.214191 714.298009,108.487771 C712.933901,108.718911 711.589496,109.048571 710.23145,109.319877 C708.864311,109.552533 707.513843,109.882193 706.15125,110.155772 C704.783353,110.387671 703.435159,110.719604 702.072566,110.991668 C700.7077,111.223566 699.363295,111.554741 698.005249,111.826047 C696.63811,112.057946 695.290674,112.388363 693.929597,112.660427 C692.566246,112.892325 691.221841,113.222743 689.864553,113.494049 C688.494382,113.726705 687.143157,114.05788 685.778291,114.330702 C684.41494,114.561843 683.070535,114.893018 681.71249,115.163566 C680.346108,115.395464 678.998672,115.72664 677.638352,115.998703 C676.27197,116.230602 674.92605,116.561777 673.566489,116.832325 C672.203138,117.064982 670.857218,117.394641 669.499172,117.665947 C668.129759,117.899361 666.777018,118.230536 665.413667,118.5026 C664.049559,118.735257 662.704396,119.065674 661.345593,119.33698 C659.979211,119.568878 658.63329,119.899296 657.273729,120.17136 C655.910378,120.4025 654.564458,120.733675 653.204897,121.004224 C651.835483,121.23688 650.485016,121.568813 649.120907,121.841635 C647.757557,122.072775 646.411636,122.40395 645.052833,122.674499 C643.687209,122.907913 642.341288,123.23833 640.980969,123.509636 C639.615345,123.742292 638.266393,124.073468 636.90759,124.344016 C635.541966,124.576672 634.193772,124.907847 632.83421,125.178395 C631.467071,125.411052 630.120392,125.742985 628.760073,126.013533 C627.394449,126.245431 626.048529,126.578122 624.688209,126.847155 C623.32107,127.080569 621.972876,127.412502 620.612556,127.683808 C619.249964,127.915706 617.905559,128.244608 616.549029,128.514398 C615.1781,128.747813 613.825359,129.080503 612.460493,129.352567 C611.0979,129.585224 609.75198,129.917157 608.393934,130.185431 C607.027552,130.418088 605.680116,130.750778 604.320554,131.020569 C602.95493,131.253983 601.608252,131.585158 600.247933,131.855706 C598.883067,132.087605 597.533357,132.420296 596.173796,132.690086 C594.807414,132.922742 593.462251,133.25316 592.10269,133.524466 C590.737066,133.756364 589.38963,134.090571 588.030068,134.358845 C586.664444,134.592259 585.31625,134.923435 583.955173,135.193225 C582.591823,135.425881 581.245902,135.757057 579.887099,136.026847 C578.517685,136.260261 577.167218,136.592952 575.802352,136.8635 C574.438243,137.096156 573.094596,137.428089 571.735035,137.697122 C570.368653,137.930536 569.021975,138.263227 567.661655,138.532259 C566.293758,138.765673 564.944806,139.098364 563.582971,139.368155 C562.219621,139.600811 560.872942,139.932744 559.514897,140.201777 C558.151546,140.435191 556.807141,140.765608 555.449096,141.034641 C554.081956,141.268055 552.732246,141.599988 551.369654,141.869778 C550.004787,142.102434 548.656593,142.435883 547.296274,142.704158 C545.928376,142.937572 544.578667,143.271021 543.216832,143.540811 C541.852724,143.772709 540.506803,144.1054 539.148757,144.374433 C537.784649,144.607089 536.440244,144.939022 535.081441,145.207297 C533.714301,145.440711 532.365349,145.77416 531.003514,146.042434 C529.635617,146.275848 528.285149,146.610055 526.922557,146.879087 C525.559964,147.110986 524.215559,147.445192 522.856756,147.712709 C521.490374,147.946881 520.142938,148.278056 518.78186,148.547089 C517.419268,148.780503 516.074105,149.111678 514.716817,149.380711 C513.349677,149.612609 512.000726,149.946816 510.637375,150.21509 C509.269478,150.449262 507.91901,150.782711 506.556417,151.052501 C505.192309,151.285158 503.84942,151.617849 502.490616,151.885365 C501.128024,152.11878 499.781345,152.45147 498.4233,152.718987 C497.055402,152.952401 495.705692,153.28585 494.3431,153.553367 C492.975202,153.787539 491.627008,154.12023 490.264415,154.39002 C488.900307,154.622676 487.555902,154.956883 486.196341,155.2244 C484.833748,155.457056 483.489343,155.788989 482.131298,156.056506 C480.7634,156.290678 479.414448,156.623369 478.051856,156.892401 C476.6832,157.125058 475.334248,157.460022 473.971656,157.728297 C472.608305,157.961711 471.2639,158.29516 469.905097,158.562676 C468.539473,158.796848 467.192794,159.129539 465.831717,159.396298 C464.463062,159.63047 463.113352,159.964677 461.749244,160.232951 C460.391198,160.46485 459.052098,160.798299 457.699357,161.0643 C456.325397,161.297714 454.971898,161.63192 453.604001,161.900953 C452.24065,162.134367 450.896245,162.468574 449.5382,162.73609 C448.172576,162.968747 446.82514,163.302953 445.464062,163.568954 C444.10147,163.803126 442.757065,164.135817 441.399019,164.403334 C440.030364,164.636748 438.677623,164.971713 437.312757,165.239229 C435.949406,165.472643 434.604244,165.806092 433.246198,166.072851 C431.881331,166.307781 430.533138,166.64123 429.172061,166.908747 C427.80871,167.141403 426.465821,167.474852 425.107017,167.740095 C423.736846,167.975025 422.384863,168.309989 421.018481,168.578264 C419.655131,168.81092 418.309968,169.145127 416.951922,169.411128 C415.587056,169.6453 414.238862,169.978748 412.878543,170.246265 C411.512919,170.478164 410.166241,170.813886 408.806679,171.079887 C407.441813,171.314059 406.094377,171.649781 404.7333,171.915782 C403.367676,172.149197 402.020997,172.483403 400.660678,172.749404 C399.294296,172.982818 397.948376,173.318541 396.586541,173.584542 C395.220917,173.819472 393.873481,174.152162 392.513919,174.418921 C391.148295,174.652336 389.801617,174.9873 388.439782,175.253301 C387.074916,175.487473 385.728238,175.820922 384.366403,176.087681 C383.001536,176.321853 381.654858,176.656059 380.293023,176.92206 C378.928157,177.155475 377.581479,177.489681 376.22116,177.757198 C374.855535,177.99137 373.508099,178.325576 372.147022,178.591578 C370.782156,178.824234 369.43472,179.159198 368.073643,179.425957 C366.708777,179.660129 365.362098,179.994336 364.000264,180.261095 C362.634639,180.494509 361.288719,180.829473 359.9284,181.094717 C358.562018,181.328889 357.216097,181.663095 355.854263,181.929854 C354.489396,182.163268 353.143476,182.498233 351.782399,182.763476 C350.417533,182.998406 349.069339,183.33337 347.707504,183.598613 C346.34188,183.833543 344.995959,184.16775 343.63564,184.433751 C342.269258,184.667165 340.921064,185.002129 339.559987,185.268131 C338.195121,185.502303 336.848443,185.836509 335.488123,186.10251 C334.123257,186.336682 332.775821,186.671647 331.414744,186.93689 C330.04912,187.17182 328.703199,187.506026 327.34288,187.772027 C325.976498,188.006199 324.630578,188.341164 323.268743,188.605649 C321.900845,188.840579 320.552651,189.176301 319.189301,189.442303 C317.828982,189.674959 316.485335,190.009165 315.128805,190.274409 C313.762423,190.508581 312.412713,190.844303 311.050878,191.110304 C309.683738,191.345234 308.33706,191.678683 306.975983,191.944684 C305.608086,192.178856 304.258376,192.515336 302.895025,192.780579 C301.533948,193.014751 300.192575,193.3482 298.836045,193.612685 C297.468147,193.846857 296.118438,194.183337 294.755845,194.447823 C293.389463,194.681995 292.043543,195.017717 290.683223,195.283718 C289.317599,195.517132 287.970921,195.851339 286.609844,196.11734 C285.241946,196.351512 283.892995,196.687992 282.530402,196.953235 C281.167051,197.186649 279.822647,197.522372 278.463843,197.787615 C277.100492,198.020271 275.75533,198.355993 274.396526,198.619721 C273.029387,198.855409 271.680435,199.190373 270.3186,199.455616 C268.950702,199.689788 267.600993,200.027026 266.237642,200.291512 C264.874291,200.526442 263.529129,200.861406 262.169568,201.125891 C260.803943,201.360063 259.457265,201.695028 258.096188,201.959513 C256.732838,202.192927 255.388433,202.52865 254.030387,202.793135 C252.661732,203.028065 251.315053,203.363787 249.950945,203.628273 C248.585321,203.862445 247.237127,204.198925 245.87605,204.46341 C244.507394,204.697582 243.161474,205.03482 241.797366,205.299305 C240.436289,205.53272 239.0934,205.868442 237.736869,206.131412 C236.368214,206.366341 235.020778,206.702064 233.65667,206.966549 C232.291045,207.200721 230.945883,207.537201 229.584806,207.800929 C228.219182,208.035101 226.871746,208.371581 225.511426,208.636066 C224.142771,208.870996 222.795335,209.207476 221.431226,209.472719 C220.070149,209.705376 218.72726,210.041856 217.37073,210.304826 C216.00359,210.539755 214.654639,210.87472 213.292046,211.139963 C211.925664,211.374135 210.578986,211.709857 209.218667,211.973585 C207.850011,212.208515 206.502575,212.545753 205.138467,212.810238 C203.774358,213.043652 202.429954,213.381648 201.07115,213.644618 C199.707799,213.878032 198.364153,214.212996 197.003833,214.477482 C195.635936,214.712412 194.2885,215.048134 192.925149,215.313377 C191.556494,215.547549 190.209057,215.883271 188.845707,216.148515 C187.481598,216.382687 186.137194,216.718409 184.777632,216.982894 C183.413524,217.217066 182.066088,217.553546 180.705769,217.816516 C179.343176,218.050688 177.998013,218.387168 176.63921,218.650138 C175.269039,218.885826 173.918571,219.222306 172.552947,219.486791 C171.188839,219.720963 169.844434,220.055928 168.484873,220.320413" id="Fill-647-Copy" fill="#B7A2FF" transform="translate(456.233566, 356.950490) rotate(-16.000000) translate(-456.233566, -356.950490) "></path>
    </g>
</svg>